# xmcd
#
# Track frame offsets: 
#        150
#        20876
#        46747
#        65781
#        88461
#        111319
#        128367
#        149365
#        164982
#        182957
#        199964
#        225964
#
# Disc length: 3269 seconds
#
# Revision: 0
# Processed by: cddbd v1.5.2PL0 Copyright (c) Steve Scherf et al.
# Submitted via: ExactAudioCopy v1.0b1
#
DISCID=b60cc30c
DTITLE=Buddy Guy - Living Proof
DYEAR=2010
DGENRE=Blues
TTITLE0=74 Years Young
TTITLE1=Thank Me Someday
TTITLE2=On The Road
TTITLE3=Stay Around A Little Longer [feat. B.B. King]
TTITLE4=Key Don't Fit
TTITLE5=Living Proof
TTITLE6=Where The Blues Begins [feat. Carlos Santana]
TTITLE7=Too Soon
TTITLE8=Everybody's Got To Go
TTITLE9=Let The Door Knob Hit Ya
TTITLE10=Guess What
TTITLE11=Skanky
EXTD=
EXTT0=
EXTT1=
EXTT2=
EXTT3=
EXTT4=
EXTT5=
EXTT6=
EXTT7=
EXTT8=
EXTT9=
EXTT10=
EXTT11=
PLAYORDER=
